<svg width="179" height="179" viewBox="0 0 179 179" fill="none" xmlns="http://www.w3.org/2000/svg">
            <g style="mix-blend-mode:hard-light">
            <path d="M64.2126 32.0745C29.7624 46.9456 9.44599 81.6296 23.6818 114.539C37.9176 147.448 78.4645 159.527 112.915 144.655C147.365 129.784 172.921 100.984 152.11 59.0999C137.874 26.1908 98.6628 17.2033 64.2126 32.0745ZM102.326 120.176C86.3376 127.078 55.8144 126.625 47.6036 107.644C39.3929 88.663 57.4782 60.3636 73.4662 53.462C89.4542 46.5605 106.373 58.7429 114.584 77.7237C122.794 96.7045 118.314 113.275 102.326 120.176Z" fill="url(#paint0_linear_10_63)"></path>
            </g>
            <g style="mix-blend-mode:hard-light" opacity="0.8">
            <path d="M27.404 110.712C39.5487 147.347 77.8248 169.863 114.505 157.802C151.185 145.741 168.476 104.954 156.331 68.3188C144.186 31.6837 105.91 9.16781 69.2303 21.2288C32.5502 33.2898 15.2593 74.0771 27.404 110.712ZM129.047 77.2902C134.683 94.2922 120.023 136.387 98.8672 143.343C77.7114 150.3 48.3227 130.89 48.2745 105.876C48.2262 80.8628 62.3614 71.7514 82.3562 65.0943C102.351 58.4372 123.411 60.2882 129.047 77.2902Z" fill="url(#paint1_linear_10_63)"></path>
            </g>
            <g style="mix-blend-mode:hard-light" opacity="0.5">
            <path d="M145.632 117.751C163.052 87.5793 155.27 48.2561 125.128 30.7558C94.9856 13.2556 57.104 26.0674 39.6842 56.2393C22.2645 86.4112 30.046 125.734 60.1884 143.235C90.3308 160.735 128.212 147.923 145.632 117.751ZM62.1053 69.2566C70.1896 55.2542 107.375 39.8838 124.76 49.9773C142.145 60.0709 146.689 91.5365 129.848 106.578C113.008 121.619 98.3822 117.553 81.8955 108.063C65.4089 98.5726 54.021 83.2591 62.1053 69.2566Z" fill="url(#paint2_linear_10_63)"></path>
            </g>
            <defs>
            <linearGradient id="paint0_linear_10_63" x1="-121.323" y1="73.1967" x2="64.3165" y2="176.194" gradientUnits="userSpaceOnUse">
            <stop stop-color="#6F00FF"></stop>
            <stop offset="1" stop-color="#49CCF9"></stop>
            </linearGradient>
            <linearGradient id="paint1_linear_10_63" x1="179.139" y1="31.69" x2="18.8255" y2="84.8345" gradientUnits="userSpaceOnUse">
            <stop stop-color="#FF02F0"></stop>
            <stop offset="1" stop-color="#E922C5"></stop>
            </linearGradient>
            <linearGradient id="paint2_linear_10_63" x1="1.29654" y1="62.8351" x2="133.328" y2="139.063" gradientUnits="userSpaceOnUse">
            <stop stop-color="#FF02F0"></stop>
            <stop offset="1" stop-color="#EDE4C3"></stop>
            </linearGradient>
            </defs>
          </svg>